<svg width="16" height="16" viewBox="0 0 16 16" fill="none" xmlns="http://www.w3.org/2000/svg">
<path d="M8.00017 4C7.91261 3.99998 7.82591 4.01721 7.74502 4.0507C7.66412 4.0842 7.59062 4.1333 7.52871 4.19521C7.4668 4.25712 7.4177 4.33063 7.3842 4.41152C7.3507 4.49241 7.33348 4.57911 7.3335 4.66667V7.5892L5.71306 8.40462C5.63487 8.44395 5.5652 8.49829 5.50801 8.56455C5.45083 8.6308 5.40725 8.70767 5.37978 8.79077C5.3523 8.87386 5.34146 8.96156 5.34787 9.04884C5.35429 9.13613 5.37783 9.22129 5.41716 9.29948C5.45648 9.37767 5.51083 9.44734 5.57708 9.50452C5.64334 9.56171 5.72021 9.60528 5.8033 9.63276C5.8864 9.66024 5.97409 9.67108 6.06137 9.66467C6.14866 9.65825 6.23383 9.63471 6.31201 9.59538L8.29965 8.59538C8.41006 8.53997 8.50288 8.45494 8.56772 8.3498C8.63257 8.24465 8.66689 8.12354 8.66683 8V4.66667C8.66686 4.57911 8.64963 4.49241 8.61613 4.41152C8.58264 4.33063 8.53353 4.25712 8.47162 4.19521C8.40971 4.1333 8.33621 4.0842 8.25532 4.0507C8.17442 4.01721 8.08772 3.99998 8.00017 4ZM8.00017 1.33334C6.68162 1.33334 5.39269 1.72433 4.29636 2.45687C3.20004 3.18941 2.34555 4.23061 1.84097 5.44878C1.33638 6.66695 1.20436 8.0074 1.4616 9.3006C1.71883 10.5938 2.35377 11.7817 3.28612 12.714C4.21847 13.6464 5.40636 14.2813 6.69956 14.5386C7.99277 14.7958 9.33322 14.6638 10.5514 14.1592C11.7696 13.6546 12.8108 12.8001 13.5433 11.7038C14.2758 10.6075 14.6668 9.31854 14.6668 8C14.6648 6.23251 13.9618 4.53799 12.712 3.28819C11.4622 2.03839 9.76766 1.33536 8.00017 1.33334ZM8.00017 13.3333C6.94533 13.3333 5.91419 13.0205 5.03712 12.4345C4.16006 11.8485 3.47648 11.0155 3.07281 10.041C2.66914 9.06644 2.56352 7.99409 2.76931 6.95952C2.9751 5.92496 3.48305 4.97465 4.22893 4.22877C4.97481 3.48289 5.92512 2.97494 6.95968 2.76915C7.99425 2.56336 9.06661 2.66898 10.0411 3.07265C11.0157 3.47631 11.8486 4.1599 12.4347 5.03696C13.0207 5.91402 13.3335 6.94517 13.3335 8C13.3319 9.41399 12.7695 10.7696 11.7696 11.7695C10.7698 12.7693 9.41416 13.3317 8.00017 13.3333Z" fill="#343434"/>
</svg>
