<svg width="16" height="16" viewBox="0 0 16 16" fill="none" xmlns="http://www.w3.org/2000/svg">
<g clip-path="url(#clip0_233_8485)">
<path d="M8.00017 1.33333C6.68162 1.33333 5.39269 1.72432 4.29636 2.45686C3.20004 3.18941 2.34555 4.2306 1.84097 5.44877C1.33638 6.66695 1.20436 8.00739 1.4616 9.3006C1.71883 10.5938 2.35377 11.7817 3.28612 12.714C4.21847 13.6464 5.40636 14.2813 6.69956 14.5386C7.99277 14.7958 9.33322 14.6638 10.5514 14.1592C11.7696 13.6546 12.8108 12.8001 13.5433 11.7038C14.2758 10.6075 14.6668 9.31854 14.6668 7.99999C14.6668 7.12452 14.4944 6.25761 14.1594 5.44877C13.8243 4.63993 13.3333 3.90501 12.7142 3.28595C12.0952 2.66689 11.3602 2.17583 10.5514 1.8408C9.74255 1.50577 8.87565 1.33333 8.00017 1.33333ZM3.3335 10.5333C3.76912 10.6466 4.21678 10.707 4.66683 10.7133C5.4199 10.734 6.15777 10.4991 6.76017 10.0467C7.90017 9.15333 7.90017 8.00666 7.90017 7.08666C7.8496 6.55418 7.93445 6.01756 8.14683 5.52666C8.33977 5.26394 8.59685 5.05507 8.8935 4.91999C9.10546 4.79613 9.31023 4.66036 9.50683 4.51333C9.92113 4.18608 10.2428 3.75636 10.4402 3.26666C11.3781 3.74657 12.1529 4.49354 12.6668 5.41333C11.7135 5.54666 10.3602 5.85999 10.0935 7.09999C10.0333 7.39626 10.0021 7.69768 10.0002 7.99999C10.0217 8.3379 9.95512 8.67561 9.80683 8.97999L9.74017 9.09333C9.30683 9.81333 8.82017 10.6333 9.48017 11.76C9.56017 11.9 9.64683 12.0333 9.7335 12.1667C9.91093 12.3716 10.0306 12.6201 10.0802 12.8867C9.42449 13.1757 8.71669 13.3277 8.00017 13.3333C7.04258 13.3285 6.10395 13.066 5.28281 12.5734C4.46168 12.0807 3.78835 11.376 3.3335 10.5333Z" fill="#343434"/>
</g>
<defs>
<clipPath id="clip0_233_8485">
<rect width="16" height="16" fill="white"/>
</clipPath>
</defs>
</svg>
