<svg width="9" height="9" viewBox="0 0 9 9" fill="none" xmlns="http://www.w3.org/2000/svg">
<path d="M2.01447 6.23333C2.31748 6.23333 2.56312 5.98749 2.56312 5.68424C2.56312 5.38098 2.31748 5.13515 2.01447 5.13515C1.71146 5.13515 1.46582 5.38098 1.46582 5.68424C1.46582 5.98749 1.71146 6.23333 2.01447 6.23333Z" fill="#707070"/>
<path d="M1.92243 7.73332C1.93427 7.74568 1.94849 7.75553 1.96424 7.76225C1.97999 7.76898 1.99693 7.77244 2.01405 7.77244C2.03118 7.77244 2.04812 7.76898 2.06387 7.76225C2.07962 7.75553 2.09384 7.74568 2.10568 7.73332L3.01744 6.78106C3.5648 6.21158 3.565 5.28068 3.01787 4.70593C2.88916 4.56879 2.73372 4.45948 2.56114 4.38475C2.38855 4.31001 2.20248 4.27143 2.01441 4.27139C1.82634 4.27135 1.64025 4.30985 1.46764 4.38451C1.29502 4.45917 1.13953 4.56841 1.01076 4.70548C0.463342 5.27501 0.463151 6.20587 1.01054 6.78088L1.92243 7.73332ZM2.01405 4.8814C2.17265 4.88139 2.3277 4.92842 2.45957 5.01654C2.59145 5.10465 2.69424 5.22989 2.75493 5.37642C2.81563 5.52296 2.83152 5.6842 2.80058 5.83975C2.76963 5.99531 2.69326 6.1382 2.58111 6.25035C2.46896 6.36251 2.32607 6.43888 2.17051 6.46983C2.01496 6.50077 1.85372 6.48489 1.70718 6.4242C1.56065 6.3635 1.43541 6.26072 1.34729 6.12884C1.25917 5.99697 1.21214 5.84192 1.21214 5.68332C1.21238 5.47071 1.29694 5.26688 1.44728 5.11654C1.59761 4.96621 1.80144 4.88164 2.01405 4.8814Z" fill="#707070"/>
<path d="M6.98664 2.56716C7.28965 2.56716 7.53529 2.32132 7.53529 2.01807C7.53529 1.71482 7.28965 1.46898 6.98664 1.46898C6.68363 1.46898 6.43799 1.71482 6.43799 2.01807C6.43799 2.32132 6.68363 2.56716 6.98664 2.56716Z" fill="#707070"/>
<path d="M6.98624 0.605225C6.7982 0.605141 6.61215 0.64362 6.43957 0.718284C6.267 0.792948 6.11157 0.902209 5.98289 1.03932C5.43552 1.60881 5.43533 2.53971 5.98271 3.11473L6.8946 4.06715C6.90644 4.07952 6.92066 4.08936 6.93641 4.09609C6.95216 4.10281 6.9691 4.10628 6.98623 4.10628C7.00335 4.10628 7.0203 4.10281 7.03604 4.09609C7.05179 4.08936 7.06601 4.07952 7.07786 4.06715L7.98961 3.11491C8.53697 2.54543 8.53718 1.61453 7.99004 1.03978C7.86134 0.902544 7.70585 0.793173 7.53319 0.718428C7.36053 0.643684 7.17438 0.605155 6.98624 0.605225ZM6.98624 2.81907C6.82763 2.81907 6.67259 2.77205 6.54071 2.68393C6.40883 2.59582 6.30604 2.47058 6.24535 2.32404C6.18465 2.17751 6.16877 2.01627 6.19971 1.86071C6.23065 1.70516 6.30702 1.56227 6.41917 1.45011C6.53132 1.33796 6.67421 1.26158 6.82977 1.23064C6.98533 1.1997 7.14657 1.21558 7.2931 1.27627C7.43963 1.33697 7.56487 1.43975 7.65299 1.57163C7.74111 1.7035 7.78814 1.85855 7.78814 2.01715C7.7879 2.22976 7.70334 2.43359 7.553 2.58392C7.40267 2.73426 7.19884 2.81883 6.98624 2.81907Z" fill="#707070"/>
<path d="M1.99463 8.11336C1.99472 8.18903 2.02482 8.26158 2.07832 8.31508C2.13183 8.36859 2.20438 8.39869 2.28005 8.39878H3.48516C4.34202 8.39878 5.03911 7.69376 5.03911 6.8369V5.67936C5.03911 5.13727 5.48013 4.70417 6.02223 4.70417H6.67235C6.74805 4.70417 6.82065 4.6741 6.87417 4.62057C6.9277 4.56705 6.95777 4.49445 6.95777 4.41875C6.95777 4.34305 6.9277 4.27046 6.87417 4.21693C6.82065 4.1634 6.74805 4.13333 6.67235 4.13333H6.02223C5.16536 4.13333 4.46827 4.82249 4.46827 5.67936V6.8369C4.46827 7.37899 4.02725 7.82794 3.48516 7.82794H2.28005C2.20438 7.82803 2.13183 7.85813 2.07832 7.91163C2.02482 7.96514 1.99472 8.03769 1.99463 8.11336Z" fill="#707070"/>
</svg>
