<svg width="11" height="11" viewBox="0 0 11 11" fill="none" xmlns="http://www.w3.org/2000/svg">
<g clip-path="url(#clip0_233_8483)">
<path fill-rule="evenodd" clip-rule="evenodd" d="M10.8017 9.53041C10.4622 10.5622 9.13193 11.077 8.18153 10.9912C6.88353 10.8739 5.47113 10.1853 4.399 9.42701C2.82306 8.31235 1.34686 6.58828 0.486663 4.75861C-0.121271 3.46575 -0.257671 1.87588 0.646529 0.697415C0.980929 0.261815 1.3432 0.0293482 1.88586 0.00221483C2.63973 -0.0344518 2.74533 0.396748 3.0042 1.06848C3.19706 1.57081 3.45446 2.08341 3.5982 2.60408C3.86733 3.57575 2.92646 3.61608 2.80766 4.41028C2.73433 4.91115 3.3408 5.58288 3.61506 5.94001C4.14371 6.63556 4.79119 7.23215 5.5276 7.70221C5.9456 7.96548 6.6188 8.43995 7.09693 8.17815C7.8332 7.77482 7.76426 6.53328 8.79313 6.95348C9.32626 7.17055 9.84253 7.48368 10.3515 7.75795C11.1383 8.18108 11.1017 8.61961 10.8017 9.53041C11.0261 8.84988 10.5773 10.2109 10.8017 9.53041Z" fill="#343434"/>
</g>
<defs>
<clipPath id="clip0_233_8483">
<rect width="11" height="11" fill="white"/>
</clipPath>
</defs>
</svg>
