<svg width="11" height="11" viewBox="0 0 11 11" fill="none" xmlns="http://www.w3.org/2000/svg">
<path d="M10.6159 4.44402C10.4614 4.25847 10.268 4.10911 10.0494 4.00647C9.83077 3.90384 9.59231 3.85043 9.35081 3.85002H6.84259L7.15062 3.06352C7.27875 2.71915 7.32141 2.34885 7.27497 1.98438C7.22852 1.6199 7.09435 1.27213 6.88395 0.970899C6.67356 0.669666 6.39322 0.423962 6.06699 0.254863C5.74077 0.0857637 5.37839 -0.00168268 5.01094 2.45251e-05C4.90513 0.000245274 4.80163 0.0309758 4.71285 0.0885319C4.62407 0.146088 4.55377 0.228026 4.51039 0.324524L2.94276 3.85002H1.65014C1.2125 3.85002 0.792778 4.02385 0.483316 4.33329C0.173854 4.64272 0 5.06241 0 5.50001V9.35C0 9.78761 0.173854 10.2073 0.483316 10.5167C0.792778 10.8262 1.2125 11 1.65014 11H8.65225C9.03828 10.9999 9.41205 10.8644 9.70852 10.6172C10.005 10.37 10.2054 10.0267 10.2749 9.647L10.9735 5.79701C11.0167 5.55907 11.007 5.31454 10.9452 5.08074C10.8835 4.84693 10.771 4.62956 10.6159 4.44402ZM2.75024 9.9H1.65014C1.50426 9.9 1.36435 9.84206 1.2612 9.73891C1.15805 9.63577 1.1001 9.49587 1.1001 9.35V5.50001C1.1001 5.35414 1.15805 5.21425 1.2612 5.1111C1.36435 5.00796 1.50426 4.95001 1.65014 4.95001H2.75024V9.9ZM9.90086 5.59901L9.2023 9.449C9.17887 9.57713 9.11072 9.69278 9.01 9.77537C8.90927 9.85796 8.7825 9.90213 8.65225 9.9H3.85033V4.51551L5.34647 1.14952C5.50047 1.19442 5.64349 1.27075 5.76651 1.37369C5.88953 1.47664 5.98987 1.60397 6.0612 1.74764C6.13252 1.89132 6.17329 2.04821 6.18092 2.20844C6.18855 2.36866 6.16288 2.52872 6.10553 2.67852L5.81401 3.46502C5.75189 3.63126 5.73092 3.81006 5.75288 3.98616C5.77485 4.16226 5.8391 4.33043 5.94015 4.47632C6.0412 4.62221 6.17605 4.74149 6.3332 4.82398C6.49034 4.90646 6.66511 4.9497 6.84259 4.95001H9.35081C9.43162 4.94988 9.51147 4.96756 9.58467 5.00178C9.65787 5.036 9.72263 5.08593 9.77435 5.14801C9.82734 5.20924 9.86615 5.28141 9.88802 5.35937C9.90989 5.43733 9.91427 5.51916 9.90086 5.59901Z" fill="black" fill-opacity="0.59"/>
</svg>
