<svg width="11" height="11" viewBox="0 0 11 11" fill="none" xmlns="http://www.w3.org/2000/svg">
<path d="M10.6159 6.55598C10.4614 6.74153 10.268 6.89089 10.0494 6.99353C9.83077 7.09616 9.59231 7.14957 9.35081 7.14998H6.84259L7.15062 7.93648C7.27875 8.28085 7.32141 8.65115 7.27497 9.01562C7.22852 9.3801 7.09435 9.72787 6.88395 10.0291C6.67356 10.3303 6.39322 10.576 6.06699 10.7451C5.74077 10.9142 5.37839 11.0017 5.01094 11C4.90513 10.9998 4.80163 10.969 4.71285 10.9115C4.62407 10.8539 4.55377 10.772 4.51039 10.6755L2.94276 7.14998H1.65014C1.2125 7.14998 0.792778 6.97615 0.483316 6.66671C0.173854 6.35728 0 5.93759 0 5.49999V1.65C0 1.21239 0.173854 0.792706 0.483316 0.483272C0.792778 0.173838 1.2125 -9.53674e-07 1.65014 -9.53674e-07H8.65225C9.03828 0.000127792 9.41205 0.135579 9.70852 0.382786C10.005 0.629992 10.2054 0.973307 10.2749 1.353L10.9735 5.20299C11.0167 5.44093 11.007 5.68546 10.9452 5.91926C10.8835 6.15307 10.771 6.37044 10.6159 6.55598ZM2.75024 1.1H1.65014C1.50426 1.1 1.36435 1.15794 1.2612 1.26109C1.15805 1.36423 1.1001 1.50413 1.1001 1.65V5.49999C1.1001 5.64586 1.15805 5.78575 1.2612 5.8889C1.36435 5.99204 1.50426 6.04999 1.65014 6.04999H2.75024V1.1ZM9.90086 5.40099L9.2023 1.551C9.17887 1.42287 9.11072 1.30722 9.01 1.22463C8.90927 1.14204 8.7825 1.09787 8.65225 1.1H3.85033V6.48449L5.34647 9.85048C5.50047 9.80558 5.64349 9.72925 5.76651 9.62631C5.88953 9.52336 5.98987 9.39603 6.0612 9.25236C6.13252 9.10868 6.17329 8.95179 6.18092 8.79156C6.18855 8.63134 6.16288 8.47128 6.10553 8.32148L5.81401 7.53498C5.75189 7.36874 5.73092 7.18994 5.75288 7.01384C5.77485 6.83774 5.8391 6.66957 5.94015 6.52368C6.0412 6.37779 6.17605 6.25851 6.3332 6.17602C6.49034 6.09354 6.66511 6.0503 6.84259 6.04999H9.35081C9.43162 6.05012 9.51147 6.03244 9.58467 5.99822C9.65787 5.964 9.72263 5.91407 9.77435 5.85199C9.82734 5.79076 9.86615 5.71859 9.88802 5.64063C9.90989 5.56267 9.91427 5.48084 9.90086 5.40099Z" fill="black" fill-opacity="0.59"/>
</svg>
